<svg xmlns="http://www.w3.org/2000/svg" viewBox="0 0 400 225" role="img" aria-label="ML algorithm taxonomy preview">
  <rect width="400" height="225" fill="#f8fafc"/>
  <text x="200" y="32" text-anchor="middle" font-family="system-ui,sans-serif" font-size="13" font-weight="600" fill="#2563eb">Machine Learning Algorithms</text>
  <line x1="200" y1="40" x2="200" y2="52" stroke="#2563eb" stroke-width="2" opacity="0.5"/>
  <line x1="120" y1="52" x2="280" y2="52" stroke="#2563eb" stroke-width="2" opacity="0.5"/>
  <line x1="120" y1="52" x2="120" y2="64" stroke="#2563eb" stroke-width="2" opacity="0.5"/>
  <line x1="280" y1="52" x2="280" y2="64" stroke="#2563eb" stroke-width="2" opacity="0.5"/>
  <rect x="60" y="64" width="120" height="24" rx="4" fill="#dbeafe" stroke="#2563eb"/>
  <text x="120" y="80" text-anchor="middle" font-family="system-ui,sans-serif" font-size="10" font-weight="600" fill="#1d4ed8">Supervised</text>
  <rect x="220" y="64" width="120" height="24" rx="4" fill="#ede9fe" stroke="#7c3aed"/>
  <text x="280" y="80" text-anchor="middle" font-family="system-ui,sans-serif" font-size="10" font-weight="600" fill="#6d28d9">Unsupervised</text>
  <rect x="40" y="110" width="70" height="20" rx="3" fill="#fff" stroke="#e2e8f0"/>
  <text x="75" y="124" text-anchor="middle" font-family="system-ui,sans-serif" font-size="8" fill="#475569">Tabular</text>
  <rect x="120" y="110" width="50" height="20" rx="3" fill="#fff" stroke="#e2e8f0"/>
  <text x="145" y="124" text-anchor="middle" font-family="system-ui,sans-serif" font-size="8" fill="#475569">Vision</text>
  <rect x="180" y="110" width="60" height="20" rx="3" fill="#fff" stroke="#e2e8f0"/>
  <text x="210" y="124" text-anchor="middle" font-family="system-ui,sans-serif" font-size="8" fill="#475569">NLP</text>
  <rect x="250" y="110" width="70" height="20" rx="3" fill="#fff" stroke="#e2e8f0"/>
  <text x="285" y="124" text-anchor="middle" font-family="system-ui,sans-serif" font-size="8" fill="#475569">Cluster</text>
  <rect x="330" y="110" width="50" height="20" rx="3" fill="#fff" stroke="#e2e8f0"/>
  <text x="355" y="124" text-anchor="middle" font-family="system-ui,sans-serif" font-size="8" fill="#475569">PCA</text>
  <rect x="30" y="150" width="55" height="18" rx="3" fill="#dbeafe" stroke="#2563eb"/>
  <rect x="90" y="150" width="55" height="18" rx="3" fill="#dbeafe" stroke="#2563eb"/>
  <rect x="150" y="150" width="55" height="18" rx="3" fill="#dbeafe" stroke="#2563eb"/>
  <rect x="210" y="150" width="55" height="18" rx="3" fill="#dbeafe" stroke="#2563eb"/>
  <rect x="120" y="178" width="55" height="18" rx="3" fill="#dbeafe" stroke="#2563eb"/>
  <rect x="185" y="178" width="70" height="18" rx="3" fill="#dbeafe" stroke="#2563eb"/>
  <rect x="265" y="178" width="55" height="18" rx="3" fill="#ede9fe" stroke="#7c3aed"/>
  <rect x="330" y="178" width="40" height="18" rx="3" fill="#ede9fe" stroke="#7c3aed"/>
  <text x="200" y="215" text-anchor="middle" font-family="system-ui,sans-serif" font-size="11" fill="#64748b">8 algorithms · Interactive framework</text>
</svg>
